<svg height="1614" width="720" xmlns="http://www.w3.org/2000/svg">
<rect height="1614" fill="#555" width="720"></rect>
<text fill="#7f7" font-family="Courier New" font-size="12" xml:space="preserve">
<tspan x="10" y="26"></tspan>
<tspan x="10" y="42">[MODE_BUILD=npmTestPublished] - 2017-01-04T17:53:06Z - npm-testing published-package mysql-lite</tspan>
<tspan x="10" y="58"></tspan>
<tspan x="10" y="74"></tspan>
<tspan x="10" y="90">&gt; mysql-lite@2016.12.28 postinstall /tmp/app/node_modules/mysql-lite</tspan>
<tspan x="10" y="106">&gt; for DIR in .bin electron-lite utility2; do     (if [ -d node_modules/$DIR ] &amp;&amp; [ ! -d $DIR ]; \</tspan>
<tspan x="10" y="122">then mv node_modules/$DIR .; fi); done; rm -fr node_modules &amp;&amp; ln -s . node_modules</tspan>
<tspan x="10" y="138"></tspan>
<tspan x="10" y="154">/tmp/app</tspan>
<tspan x="10" y="170">└── mysql-lite@2016.12.28 </tspan>
<tspan x="10" y="186"></tspan>
<tspan x="10" y="202">npm WARN enoent ENOENT: no such file or directory, open '/tmp/app/package.json'</tspan>
<tspan x="10" y="218">npm WARN app No description</tspan>
<tspan x="10" y="234">npm WARN app No repository field.</tspan>
<tspan x="10" y="250">npm WARN app No README data</tspan>
<tspan x="10" y="266">npm WARN app No license field.</tspan>
<tspan x="10" y="282"></tspan>
<tspan x="10" y="298">&gt; electron-lite@2016.12.29 postinstall /tmp/app/node_modules/mysql-lite/node_modules/electron-li\</tspan>
<tspan x="10" y="314">te</tspan>
<tspan x="10" y="330">&gt; if [ -f npm-scripts.electron-lite.sh ]; then ./npm-scripts.electron-lite.sh postinstall; fi</tspan>
<tspan x="10" y="346"></tspan>
<tspan x="10" y="362"></tspan>
<tspan x="10" y="378">&gt; utility2@2016.12.3 postinstall /tmp/app/node_modules/mysql-lite/node_modules/utility2</tspan>
<tspan x="10" y="394">&gt; if [ -f npm-scripts.utility2.sh ]; then npm-scripts.utility2.sh postinstall; fi</tspan>
<tspan x="10" y="410"></tspan>
<tspan x="10" y="426"></tspan>
<tspan x="10" y="442">&gt; mysql-lite@2016.12.28 postinstall /tmp/app/node_modules/mysql-lite</tspan>
<tspan x="10" y="458">&gt; for DIR in .bin electron-lite utility2; do     (if [ -d node_modules/$DIR ] &amp;&amp; [ ! -d $DIR ]; \</tspan>
<tspan x="10" y="474">then mv node_modules/$DIR .; fi); done; rm -fr node_modules &amp;&amp; ln -s . node_modules</tspan>
<tspan x="10" y="490"></tspan>
<tspan x="10" y="506">mysql-lite@2016.12.28 /tmp/app/node_modules/mysql-lite</tspan>
<tspan x="10" y="522">├── electron-lite@2016.12.29  (git://github.com/kaizhu256/node-electron-lite.git#785efd6993f64ea\</tspan>
<tspan x="10" y="538">240e602465f162897c82b8520)</tspan>
<tspan x="10" y="554">└── utility2@2016.12.3  (git://github.com/kaizhu256/node-utility2.git#98b8211950312310c5682eb62c\</tspan>
<tspan x="10" y="570">ab92a3542e2dc6)</tspan>
<tspan x="10" y="586"></tspan>
<tspan x="10" y="602"></tspan>
<tspan x="10" y="618">&gt; mysql-lite@2016.12.28 test /tmp/app/node_modules/mysql-lite</tspan>
<tspan x="10" y="634">&gt; export PORT=$(utility2 shServerPortRandom) &amp;&amp; utility2 test test.js</tspan>
<tspan x="10" y="650"></tspan>
<tspan x="10" y="666"></tspan>
<tspan x="10" y="682">[MODE_BUILD=npmTestPublished] - 2017-01-04T17:53:11Z - npm-testing /tmp/app/node_modules/mysql-l\</tspan>
<tspan x="10" y="698">ite</tspan>
<tspan x="10" y="714"></tspan>
<tspan x="10" y="730"></tspan>
<tspan x="10" y="746">covering $ /home/travis/.nvm/versions/node/v7.3.0/bin/node /tmp/app/node_modules/mysql-lite/test\</tspan>
<tspan x="10" y="762">.js</tspan>
<tspan x="10" y="778">&gt; server listening on http-port 33931</tspan>
<tspan x="10" y="794">created documentation file:///tmp/app/node_modules/mysql-lite/tmp/build/doc.api.html</tspan>
<tspan x="10" y="810"></tspan>
<tspan x="10" y="826"></tspan>
<tspan x="10" y="842">browserTest - created electron entry-page /tmp/app/node_modules/mysql-lite/tmp/electron.1596a9d0\</tspan>
<tspan x="10" y="858">2530.8b3b2deeb2699.html</tspan>
<tspan x="10" y="874"></tspan>
<tspan x="10" y="890">[2255:0104/175311:ERROR:browser_main_loop.cc(231)] Running without the SUID sandbox! See https:/\</tspan>
<tspan x="10" y="906">/chromium.googlesource.com/chromium/src/+/master/docs/linux_suid_sandbox_development.md for more\</tspan>
<tspan x="10" y="922"> information on developing with the sandbox on.</tspan>
<tspan x="10" y="938">Xlib:  extension "RANDR" missing on display ":99.0".</tspan>
<tspan x="10" y="954">[2255:0104/175312:ERROR:bus.cc(432)] Failed to connect to the bus: Failed to connect to socket /\</tspan>
<tspan x="10" y="970">var/run/dbus/system_bus_socket: Connection refused</tspan>
<tspan x="10" y="986">Xlib:  extension "RANDR" missing on display ":99.0".</tspan>
<tspan x="10" y="1002">[2255:0104/175312:WARNING:audio_manager.cc(314)] Multiple instances of AudioManager detected</tspan>
<tspan x="10" y="1018">[2255:0104/175312:WARNING:audio_manager.cc(275)] Multiple instances of AudioManager detected</tspan>
<tspan x="10" y="1034">[2274:0104/175312:ERROR:sandbox_linux.cc(343)] InitializeSandbox() called with multiple threads \</tspan>
<tspan x="10" y="1050">in process gpu-process. </tspan>
<tspan x="10" y="1066">[2255:0104/175312:ERROR:browser_gpu_channel_host_factory.cc(131)] Failed to create channel.</tspan>
<tspan x="10" y="1082"></tspan>
<tspan x="10" y="1098">browserTest - opened url file:///tmp/app/node_modules/mysql-lite/tmp/build/doc.api.html</tspan>
<tspan x="10" y="1114"></tspan>
<tspan x="10" y="1130"></tspan>
<tspan x="10" y="1146">browserTest - created screen-capture file:///tmp/app/node_modules/mysql-lite/tmp/build/screen-ca\</tspan>
<tspan x="10" y="1162">pture.npmTestPublished.browser._2Ftmp_2Fapp_2Fnode_modules_2Fmysql-lite_2Ftmp_2Fbuild_2Fdoc.api.\</tspan>
<tspan x="10" y="1178">html.png</tspan>
<tspan x="10" y="1194"></tspan>
<tspan x="10" y="1210"></tspan>
<tspan x="10" y="1226">browserTest - exit-code 0 - file:///tmp/app/node_modules/mysql-lite/tmp/build/doc.api.html</tspan>
<tspan x="10" y="1242"></tspan>
<tspan x="10" y="1258">[node test-case 1 of 1 passed] - testCase_build_doc</tspan>
<tspan x="10" y="1274">-------------------|-----------|-----------|-----------|-----------|</tspan>
<tspan x="10" y="1290">File               |   % Stmts |% Branches |   % Funcs |   % Lines |</tspan>
<tspan x="10" y="1306">-------------------|-----------|-----------|-----------|-----------|</tspan>
<tspan x="10" y="1322">   mysql-lite/     |       100 |       100 |       100 |       100 |</tspan>
<tspan x="10" y="1338">      lib.mysql.js |       100 |       100 |       100 |       100 |</tspan>
<tspan x="10" y="1354">      test.js      |       100 |       100 |       100 |       100 |</tspan>
<tspan x="10" y="1370">-------------------|-----------|-----------|-----------|-----------|</tspan>
<tspan x="10" y="1386">All files          |       100 |       100 |       100 |       100 |</tspan>
<tspan x="10" y="1402">-------------------|-----------|-----------|-----------|-----------|</tspan>
<tspan x="10" y="1418"></tspan>
<tspan x="10" y="1434">created coverage file:///tmp/app/node_modules/mysql-lite/tmp/build/coverage.html/index.html</tspan>
<tspan x="10" y="1450"></tspan>
<tspan x="10" y="1466">-------------------------------------------------------</tspan>
<tspan x="10" y="1482">| test-report - npmTestPublished - node - linux v7.3.0 - 2017-01-04T17:53:11.249Z</tspan>
<tspan x="10" y="1498">|    6806 ms            0 failed        1 passed      |</tspan>
<tspan x="10" y="1514">-------------------------------------------------------</tspan>
<tspan x="10" y="1530"></tspan>
<tspan x="10" y="1546">created test-report file:///tmp/app/node_modules/mysql-lite/tmp/build/test-report.html</tspan>
<tspan x="10" y="1562"></tspan>
<tspan x="10" y="1578"></tspan>
<tspan x="10" y="1594">npmTestPublished - 0 failed tests</tspan>
</text>
</svg>
