<svg height="1214" width="720" xmlns="http://www.w3.org/2000/svg">
<rect height="1214" fill="#555" width="720"></rect>
<text fill="#7f7" font-family="Courier New" font-size="12" xml:space="preserve">
<tspan x="10" y="26"></tspan>
<tspan x="10" y="42">&gt; mysql-lite@2016.11.2 test /home/travis/build/kaizhu256/node-mysql-lite</tspan>
<tspan x="10" y="58">&gt; export PORT=$(utility2 shServerPortRandom) &amp;&amp; utility2 test test.js</tspan>
<tspan x="10" y="74"></tspan>
<tspan x="10" y="90"></tspan>
<tspan x="10" y="106">[MODE_BUILD=npmTest] - 2016-12-01T15:10:27Z - npm-testing /home/travis/build/kaizhu256/node-mysq\</tspan>
<tspan x="10" y="122">l-lite</tspan>
<tspan x="10" y="138"></tspan>
<tspan x="10" y="154"></tspan>
<tspan x="10" y="170">covering $ /home/travis/.nvm/versions/node/v7.2.0/bin/node /home/travis/build/kaizhu256/node-mys\</tspan>
<tspan x="10" y="186">ql-lite/test.js</tspan>
<tspan x="10" y="202">merging file:///home/travis/build/kaizhu256/node-mysql-lite/tmp/build/test-report.json to test-r\</tspan>
<tspan x="10" y="218">eport</tspan>
<tspan x="10" y="234">&gt; server listening on http-port 60516</tspan>
<tspan x="10" y="250"></tspan>
<tspan x="10" y="266">browserTest - created electron entry-page /home/travis/build/kaizhu256/node-mysql-lite/tmp/elect\</tspan>
<tspan x="10" y="282">ron.158baefd-0bab-4ca9-ad8b-cc3953939849.html</tspan>
<tspan x="10" y="298"></tspan>
<tspan x="10" y="314">[2393:1201/151028:ERROR:browser_main_loop.cc(231)] Running without the SUID sandbox! See https:/\</tspan>
<tspan x="10" y="330">/chromium.googlesource.com/chromium/src/+/master/docs/linux_suid_sandbox_development.md for more\</tspan>
<tspan x="10" y="346"> information on developing with the sandbox on.</tspan>
<tspan x="10" y="362">Xlib:  extension "RANDR" missing on display ":99.0".</tspan>
<tspan x="10" y="378">merging file:///home/travis/build/kaizhu256/node-mysql-lite/tmp/build/test-report.json to test-r\</tspan>
<tspan x="10" y="394">eport</tspan>
<tspan x="10" y="410">[2393:1201/151029:ERROR:bus.cc(432)] Failed to connect to the bus: Failed to connect to socket /\</tspan>
<tspan x="10" y="426">var/run/dbus/system_bus_socket: Connection refused</tspan>
<tspan x="10" y="442">Xlib:  extension "RANDR" missing on display ":99.0".</tspan>
<tspan x="10" y="458">[2393:1201/151029:WARNING:audio_manager.cc(314)] Multiple instances of AudioManager detected</tspan>
<tspan x="10" y="474">[2393:1201/151029:WARNING:audio_manager.cc(275)] Multiple instances of AudioManager detected</tspan>
<tspan x="10" y="490">[2421:1201/151029:ERROR:sandbox_linux.cc(343)] InitializeSandbox() called with multiple threads \</tspan>
<tspan x="10" y="506">in process gpu-process. </tspan>
<tspan x="10" y="522">[2393:1201/151029:ERROR:browser_gpu_channel_host_factory.cc(131)] Failed to create channel.</tspan>
<tspan x="10" y="538"></tspan>
<tspan x="10" y="554">browserTest - opened url file:///home/travis/build/kaizhu256/node-mysql-lite/tmp/build/doc.api.h\</tspan>
<tspan x="10" y="570">tml</tspan>
<tspan x="10" y="586"></tspan>
<tspan x="10" y="602"></tspan>
<tspan x="10" y="618">browserTest - created screen-capture file:///home/travis/build/kaizhu256/node-mysql-lite/tmp/bui\</tspan>
<tspan x="10" y="634">ld/screen-capture.npmTest.browser._2Fhome_2Ftravis_2Fbuild_2Fkaizhu256_2Fnode-mysql-lite_2Ftmp_2\</tspan>
<tspan x="10" y="650">Fbuild_2Fdoc.api.html.png</tspan>
<tspan x="10" y="666"></tspan>
<tspan x="10" y="682"></tspan>
<tspan x="10" y="698">browserTest - exit-code 0 - file:///home/travis/build/kaizhu256/node-mysql-lite/tmp/build/doc.ap\</tspan>
<tspan x="10" y="714">i.html</tspan>
<tspan x="10" y="730"></tspan>
<tspan x="10" y="746">[node test-case 1 of 1 passed] - testCase_build_doc</tspan>
<tspan x="10" y="762">--------------------|-----------|-----------|-----------|-----------|</tspan>
<tspan x="10" y="778">File                |   % Stmts |% Branches |   % Funcs |   % Lines |</tspan>
<tspan x="10" y="794">--------------------|-----------|-----------|-----------|-----------|</tspan>
<tspan x="10" y="810">   node-mysql-lite/ |       100 |       100 |       100 |       100 |</tspan>
<tspan x="10" y="826">      lib.mysql.js  |       100 |       100 |       100 |       100 |</tspan>
<tspan x="10" y="842">      test.js       |       100 |       100 |       100 |       100 |</tspan>
<tspan x="10" y="858">--------------------|-----------|-----------|-----------|-----------|</tspan>
<tspan x="10" y="874">All files           |       100 |       100 |       100 |       100 |</tspan>
<tspan x="10" y="890">--------------------|-----------|-----------|-----------|-----------|</tspan>
<tspan x="10" y="906"></tspan>
<tspan x="10" y="922">created coverage file:///home/travis/build/kaizhu256/node-mysql-lite/tmp/build/coverage.html/ind\</tspan>
<tspan x="10" y="938">ex.html</tspan>
<tspan x="10" y="954">merging file:///home/travis/build/kaizhu256/node-mysql-lite/tmp/build/test-report.json to test-r\</tspan>
<tspan x="10" y="970">eport</tspan>
<tspan x="10" y="986"></tspan>
<tspan x="10" y="1002">-------------------------------------------------------</tspan>
<tspan x="10" y="1018">| test-report - npmTest - node - linux v7.2.0 - 2016-12-01T15:10:28.144Z</tspan>
<tspan x="10" y="1034">|    6346 ms            0 failed        1 passed      |</tspan>
<tspan x="10" y="1050">-------------------------------------------------------</tspan>
<tspan x="10" y="1066">| test-report - npmTestPublished - node - linux v7.2.0 - 2016-12-01T15:10:18.876Z</tspan>
<tspan x="10" y="1082">|    6412 ms            0 failed        1 passed      |</tspan>
<tspan x="10" y="1098">-------------------------------------------------------</tspan>
<tspan x="10" y="1114"></tspan>
<tspan x="10" y="1130">created test-report file:///home/travis/build/kaizhu256/node-mysql-lite/tmp/build/test-report.ht\</tspan>
<tspan x="10" y="1146">ml</tspan>
<tspan x="10" y="1162"></tspan>
<tspan x="10" y="1178"></tspan>
<tspan x="10" y="1194">npmTest - 0 failed tests</tspan>
</text>
</svg>
