<svg height="622" width="720" xmlns="http://www.w3.org/2000/svg">
<rect height="622" fill="#555" width="720"></rect>
<text fill="#7f7" font-family="Courier New" font-size="12" xml:space="preserve">
<tspan x="10" y="26">2017-01-05 11:05:51 +0800</tspan>
<tspan x="10" y="42">update README.md</tspan>
<tspan x="10" y="58"></tspan>
<tspan x="10" y="74">2017-01-05 10:44:47 +0800</tspan>
<tspan x="10" y="90">update README.md</tspan>
<tspan x="10" y="106"></tspan>
<tspan x="10" y="122">2017-01-05 10:43:01 +0800</tspan>
<tspan x="10" y="138">update README.md</tspan>
<tspan x="10" y="154"></tspan>
<tspan x="10" y="170">2017-01-05 10:38:21 +0800</tspan>
<tspan x="10" y="186">update README.md</tspan>
<tspan x="10" y="202"></tspan>
<tspan x="10" y="218">2017-01-05 01:52:08 +0800</tspan>
<tspan x="10" y="234">update package.json</tspan>
<tspan x="10" y="250"></tspan>
<tspan x="10" y="266">2017-01-05 01:51:41 +0800</tspan>
<tspan x="10" y="282">test readme</tspan>
<tspan x="10" y="298"></tspan>
<tspan x="10" y="314">2017-01-05 01:49:15 +0800</tspan>
<tspan x="10" y="330">test readme</tspan>
<tspan x="10" y="346"></tspan>
<tspan x="10" y="362">2016-12-29 16:51:16 +0800</tspan>
<tspan x="10" y="378">minor</tspan>
<tspan x="10" y="394"></tspan>
<tspan x="10" y="410">2016-12-29 04:06:48 +0800</tspan>
<tspan x="10" y="426">- npm publish 2016.12.28</tspan>
<tspan x="10" y="442">- update documentation</tspan>
<tspan x="10" y="458"></tspan>
<tspan x="10" y="474">2016-12-03 19:11:05 +0800</tspan>
<tspan x="10" y="490">- npm publish 2016.11.2</tspan>
<tspan x="10" y="506">- update documentation</tspan>
<tspan x="10" y="522"></tspan>
<tspan x="10" y="538">2016-12-01 21:45:55 +0800</tspan>
<tspan x="10" y="554">- npm publish 2016.11.1</tspan>
<tspan x="10" y="570"></tspan>
<tspan x="10" y="586">2014-03-26 02:31:50 +0700</tspan>
<tspan x="10" y="602">add blank README.md</tspan>
</text>
</svg>
